# Wavefront OBJ file automatically generated by Tiled2Unity

# Vertices (Count = 110)
v -128 -224 0
v -144 -224 0
v -144 -208 0
v -128 -208 0
v -64 -208 0
v -80 -208 0
v -80 -192 0
v -64 -192 0
v -96 -208 0
v -96 -192 0
v -112 -208 0
v -112 -192 0
v -128 -192 0
v -144 -192 0
v -160 -208 0
v -160 -192 0
v -176 -208 0
v -176 -192 0
v -192 -208 0
v -192 -192 0
v -80 -176 0
v -64 -176 0
v -96 -176 0
v -112 -176 0
v -128 -176 0
v -144 -176 0
v -160 -176 0
v -176 -176 0
v -192 -176 0
v -80 -160 0
v -64 -160 0
v -96 -160 0
v -112 -160 0
v -128 -160 0
v -144 -160 0
v -160 -160 0
v -176 -160 0
v -192 -160 0
v -48 -160 0
v -64 -144 0
v -48 -144 0
v -80 -144 0
v -96 -144 0
v -112 -144 0
v -128 -144 0
v -144 -144 0
v -160 -144 0
v -176 -144 0
v -192 -144 0
v -208 -160 0
v -208 -144 0
v -64 -128 0
v -48 -128 0
v -80 -128 0
v -96 -128 0
v -112 -128 0
v -128 -128 0
v -144 -128 0
v -160 -128 0
v -176 -128 0
v -192 -128 0
v -208 -128 0
v -64 -112 0
v -48 -112 0
v -80 -112 0
v -96 -112 0
v -112 -112 0
v -128 -112 0
v -144 -112 0
v -160 -112 0
v -176 -112 0
v -192 -112 0
v -208 -112 0
v -384 -128 0
v -400 -128 0
v -400 -112 0
v -384 -112 0
v -64 -96 0
v -48 -96 0
v -80 -96 0
v -96 -96 0
v -112 -96 0
v -128 -96 0
v -144 -96 0
v -160 -96 0
v -176 -96 0
v -192 -96 0
v -208 -96 0
v -64 -80 0
v -48 -80 0
v -80 -80 0
v -96 -80 0
v -112 -80 0
v -128 -80 0
v -144 -80 0
v -160 -80 0
v -176 -80 0
v -192 -80 0
v -208 -80 0
v -64 -64 0
v -48 -64 0
v -80 -64 0
v -96 -64 0
v -112 -64 0
v -128 -64 0
v -144 -64 0
v -160 -64 0
v -176 -64 0
v -192 -64 0
v -208 -64 0

# Texture cooridinates (Count = 108)
vt 0.1581799 0.9050651
vt 0.1744647 0.9050651
vt 0.1744647 0.9352391
vt 0.1581799 0.9352391
vt 0.1757419 0.6788293
vt 0.1920267 0.6788293
vt 0.1920267 0.7090034
vt 0.1757419 0.7090034
vt 0.1933039 0.6788293
vt 0.2095887 0.6788293
vt 0.2095887 0.7090034
vt 0.1933039 0.7090034
vt 0.2108659 0.6788293
vt 0.2271507 0.6788293
vt 0.2271507 0.7090034
vt 0.2108659 0.7090034
vt 0.1757419 0.7111487
vt 0.1920267 0.7111487
vt 0.1920267 0.7413228
vt 0.1757419 0.7413228
vt 0.1933039 0.7111487
vt 0.2095887 0.7111487
vt 0.2095887 0.7413228
vt 0.1933039 0.7413228
vt 0.2108659 0.7111487
vt 0.2271507 0.7111487
vt 0.2271507 0.7413228
vt 0.2108659 0.7413228
vt 0.2284279 0.5172323
vt 0.2447126 0.5172323
vt 0.2447126 0.5474064
vt 0.2284279 0.5474064
vt 0.1757419 0.743468
vt 0.1920267 0.743468
vt 0.1920267 0.7736422
vt 0.1757419 0.7736422
vt 0.1933039 0.743468
vt 0.2095887 0.743468
vt 0.2095887 0.7736422
vt 0.1933039 0.7736422
vt 0.2108659 0.743468
vt 0.2271507 0.743468
vt 0.2271507 0.7736422
vt 0.2108659 0.7736422
vt 0.2635518 0.5495517
vt 0.2798366 0.5495517
vt 0.2798366 0.5797259
vt 0.2635518 0.5797259
vt 0.3337997 0.2263578
vt 0.3500845 0.2263578
vt 0.3500845 0.2565319
vt 0.3337997 0.2565319
vt 0.2459898 0.2909966
vt 0.2622746 0.2909966
vt 0.2622746 0.3211707
vt 0.2459898 0.3211707
vt 0.3337997 0.2586772
vt 0.3500845 0.2586772
vt 0.3500845 0.2888513
vt 0.3337997 0.2888513
vt 0.3337997 0.2909966
vt 0.3500845 0.2909966
vt 0.3500845 0.3211707
vt 0.3337997 0.3211707
vt 0.2811138 0.5818712
vt 0.2973986 0.5818712
vt 0.2973986 0.6120452
vt 0.2811138 0.6120452
vt 0.2459898 0.5818712
vt 0.2622746 0.5818712
vt 0.2622746 0.6120452
vt 0.2459898 0.6120452
vt 0.2986758 0.5818712
vt 0.3149606 0.5818712
vt 0.3149606 0.6120452
vt 0.2986758 0.6120452
vt 0.3689237 0.8404263
vt 0.3852085 0.8404263
vt 0.3852085 0.8706003
vt 0.3689237 0.8706003
vt 0.3337997 0.7757875
vt 0.3500845 0.7757875
vt 0.3500845 0.8059616
vt 0.3337997 0.8059616
vt 0.3513618 0.7757875
vt 0.3676465 0.7757875
vt 0.3676465 0.8059616
vt 0.3513618 0.8059616
vt 0.3864857 0.8404263
vt 0.4027705 0.8404263
vt 0.4027705 0.8706003
vt 0.3864857 0.8706003
vt 0.1933039 0.8081068
vt 0.2095887 0.8081068
vt 0.2095887 0.838281
vt 0.1933039 0.838281
vt 0.2108659 0.7757875
vt 0.2271507 0.7757875
vt 0.2271507 0.8059616
vt 0.2108659 0.8059616
vt 0.4040477 0.8081068
vt 0.4203325 0.8081068
vt 0.4203325 0.838281
vt 0.4040477 0.838281
vt 0.2459898 0.9373844
vt 0.2622746 0.9373844
vt 0.2622746 0.9675586
vt 0.2459898 0.9675586

# Normal
vn 0 0 -1

# Groups (Count = 2)

g mesh_0001
f 1/1/1 2/2/1 3/3/1 4/4/1
f 5/1/1 6/2/1 7/3/1 8/4/1
f 6/1/1 9/2/1 10/3/1 7/4/1
f 9/1/1 11/2/1 12/3/1 10/4/1
f 11/1/1 4/2/1 13/3/1 12/4/1
f 4/1/1 3/2/1 14/3/1 13/4/1
f 3/1/1 15/2/1 16/3/1 14/4/1
f 15/1/1 17/2/1 18/3/1 16/4/1
f 17/1/1 19/2/1 20/3/1 18/4/1
f 8/1/1 7/2/1 21/3/1 22/4/1
f 7/1/1 10/2/1 23/3/1 21/4/1
f 10/1/1 12/2/1 24/3/1 23/4/1
f 12/5/1 13/6/1 25/7/1 24/8/1
f 13/9/1 14/10/1 26/11/1 25/12/1
f 14/13/1 16/14/1 27/15/1 26/16/1
f 16/1/1 18/2/1 28/3/1 27/4/1
f 18/1/1 20/2/1 29/3/1 28/4/1
f 22/1/1 21/2/1 30/3/1 31/4/1
f 21/1/1 23/2/1 32/3/1 30/4/1
f 23/1/1 24/2/1 33/3/1 32/4/1
f 24/17/1 25/18/1 34/19/1 33/20/1
f 25/21/1 26/22/1 35/23/1 34/24/1
f 26/25/1 27/26/1 36/27/1 35/28/1
f 27/1/1 28/2/1 37/3/1 36/4/1
f 28/1/1 29/2/1 38/3/1 37/4/1
f 39/29/1 31/30/1 40/31/1 41/32/1
f 31/1/1 30/2/1 42/3/1 40/4/1
f 30/1/1 32/2/1 43/3/1 42/4/1
f 32/1/1 33/2/1 44/3/1 43/4/1
f 33/33/1 34/34/1 45/35/1 44/36/1
f 34/37/1 35/38/1 46/39/1 45/40/1
f 35/41/1 36/42/1 47/43/1 46/44/1
f 36/1/1 37/2/1 48/3/1 47/4/1
f 37/1/1 38/2/1 49/3/1 48/4/1
f 38/29/1 50/30/1 51/31/1 49/32/1
f 41/45/1 40/46/1 52/47/1 53/48/1
f 40/1/1 42/2/1 54/3/1 52/4/1
f 42/1/1 43/2/1 55/3/1 54/4/1
f 43/1/1 44/2/1 56/3/1 55/4/1
f 44/1/1 45/2/1 57/3/1 56/4/1
f 45/1/1 46/2/1 58/3/1 57/4/1
f 46/1/1 47/2/1 59/3/1 58/4/1
f 47/1/1 48/2/1 60/3/1 59/4/1
f 48/1/1 49/2/1 61/3/1 60/4/1
f 49/45/1 51/46/1 62/47/1 61/48/1
f 53/45/1 52/46/1 63/47/1 64/48/1
f 52/49/1 54/50/1 65/51/1 63/52/1
f 54/49/1 55/50/1 66/51/1 65/52/1
f 55/49/1 56/50/1 67/51/1 66/52/1
f 56/49/1 57/50/1 68/51/1 67/52/1
f 57/49/1 58/50/1 69/51/1 68/52/1
f 58/49/1 59/50/1 70/51/1 69/52/1
f 59/49/1 60/50/1 71/51/1 70/52/1
f 60/49/1 61/50/1 72/51/1 71/52/1
f 61/45/1 62/46/1 73/47/1 72/48/1
f 74/53/1 75/54/1 76/55/1 77/56/1
f 64/45/1 63/46/1 78/47/1 79/48/1
f 63/57/1 65/58/1 80/59/1 78/60/1
f 65/57/1 66/58/1 81/59/1 80/60/1
f 66/57/1 67/58/1 82/59/1 81/60/1
f 67/57/1 68/58/1 83/59/1 82/60/1
f 68/57/1 69/58/1 84/59/1 83/60/1
f 69/57/1 70/58/1 85/59/1 84/60/1
f 70/57/1 71/58/1 86/59/1 85/60/1
f 71/57/1 72/58/1 87/59/1 86/60/1
f 72/45/1 73/46/1 88/47/1 87/48/1
f 79/45/1 78/46/1 89/47/1 90/48/1
f 78/61/1 80/62/1 91/63/1 89/64/1
f 80/61/1 81/62/1 92/63/1 91/64/1
f 81/61/1 82/62/1 93/63/1 92/64/1
f 82/61/1 83/62/1 94/63/1 93/64/1
f 83/61/1 84/62/1 95/63/1 94/64/1
f 84/61/1 85/62/1 96/63/1 95/64/1
f 85/61/1 86/62/1 97/63/1 96/64/1
f 86/61/1 87/62/1 98/63/1 97/64/1
f 87/45/1 88/46/1 99/47/1 98/48/1
f 90/65/1 89/66/1 100/67/1 101/68/1
f 89/69/1 91/70/1 102/71/1 100/72/1
f 91/69/1 92/70/1 103/71/1 102/72/1
f 92/69/1 93/70/1 104/71/1 103/72/1
f 93/69/1 94/70/1 105/71/1 104/72/1
f 94/69/1 95/70/1 106/71/1 105/72/1
f 95/69/1 96/70/1 107/71/1 106/72/1
f 96/69/1 97/70/1 108/71/1 107/72/1
f 97/69/1 98/70/1 109/71/1 108/72/1
f 98/73/1 99/74/1 110/75/1 109/76/1

g mesh_0002
f 21/77/1 23/78/1 32/79/1 30/80/1
f 23/81/1 24/82/1 33/83/1 32/84/1
f 24/85/1 25/86/1 34/87/1 33/88/1
f 25/89/1 26/90/1 35/91/1 34/92/1
f 40/93/1 42/94/1 54/95/1 52/96/1
f 42/97/1 43/98/1 55/99/1 54/100/1
f 45/101/1 46/102/1 58/103/1 57/104/1
f 48/105/1 49/106/1 61/107/1 60/108/1
f 52/93/1 54/94/1 65/95/1 63/96/1
f 54/97/1 55/98/1 66/99/1 65/100/1

